<svg width="109" height="109" viewBox="0 0 109 109" fill="none" xmlns="http://www.w3.org/2000/svg">
<path d="M54.4546 9.0835C29.3846 9.0835 9.08331 29.4302 9.08331 54.5002C9.08331 79.5702 29.3846 99.9168 54.4546 99.9168C79.57 99.9168 99.9166 79.5702 99.9166 54.5002C99.9166 29.4302 79.57 9.0835 54.4546 9.0835ZM38.6041 36.3335C42.3737 36.3335 45.4166 39.3764 45.4166 43.146C45.4166 46.9156 42.3737 49.9585 38.6041 49.9585C34.8346 49.9585 31.7916 46.9156 31.7916 43.146C31.7916 39.3764 34.8346 36.3335 38.6041 36.3335ZM54.5 81.7502C44.145 81.7502 35.3341 74.211 31.7916 63.5835H77.2083C73.6658 74.211 64.855 81.7502 54.5 81.7502ZM70.3958 49.9585C66.6262 49.9585 63.5833 46.9156 63.5833 43.146C63.5833 39.3764 66.6262 36.3335 70.3958 36.3335C74.1654 36.3335 77.2083 39.3764 77.2083 43.146C77.2083 46.9156 74.1654 49.9585 70.3958 49.9585Z" fill="#699BF7"/>
</svg>
