<svg width="88" height="88" viewBox="0 0 88 88" fill="none" xmlns="http://www.w3.org/2000/svg">
<g clip-path="url(#clip0_139_224)">
<path d="M59.51 26.0407C52.1693 25.542 35.816 25.5457 28.4863 26.0407C20.548 26.5833 19.6167 31.3793 19.5543 44C19.6167 56.5987 20.5443 61.4167 28.49 61.9593C35.8197 62.4543 52.173 62.458 59.5137 61.9593C67.452 61.4167 68.387 56.617 68.4493 44C68.3833 31.4013 67.4557 26.5833 59.51 26.0407ZM36.6667 52.1473V35.8527L54.186 43.9853L36.6667 52.1473ZM44 7.33333C64.218 7.33333 80.6667 23.782 80.6667 44C80.6667 64.218 64.218 80.6667 44 80.6667C23.782 80.6667 7.33333 64.218 7.33333 44C7.33333 23.782 23.782 7.33333 44 7.33333ZM44 0C19.701 0 0 19.701 0 44C0 68.299 19.701 88 44 88C68.299 88 88 68.299 88 44C88 19.701 68.299 0 44 0Z" fill="white"/>
</g>
<defs>
<clipPath id="clip0_139_224">
<rect width="88" height="88" fill="white"/>
</clipPath>
</defs>
</svg>
