<svg width="88" height="88" viewBox="0 0 88 88" fill="none" xmlns="http://www.w3.org/2000/svg">
<g clip-path="url(#clip0_139_226)">
<path d="M44 7.33333C64.218 7.33333 80.6667 23.782 80.6667 44C80.6667 64.218 64.218 80.6667 44 80.6667C23.782 80.6667 7.33333 64.218 7.33333 44C7.33333 23.782 23.782 7.33333 44 7.33333ZM44 0C19.701 0 0 19.701 0 44C0 68.299 19.701 88 44 88C68.299 88 88 68.299 88 44C88 19.701 68.299 0 44 0ZM67.8333 32.186C66.2163 32.9047 64.4747 33.3887 62.6487 33.6087C64.515 32.4903 65.9413 30.723 66.6197 28.6147C64.8743 29.6487 62.942 30.4003 60.885 30.8037C59.2423 29.0473 56.892 27.951 54.2997 27.951C48.4697 27.951 44.187 33.3887 45.5033 39.0353C38.005 38.6577 31.35 35.0643 26.8987 29.6047C24.5337 33.66 25.674 38.9693 29.6927 41.657C28.215 41.6093 26.8253 41.2023 25.608 40.5277C25.509 44.7077 28.5083 48.62 32.8497 49.4927C31.581 49.8373 30.1877 49.918 28.7723 49.6467C29.92 53.2327 33.2603 55.8397 37.2057 55.913C33.4033 58.8903 28.6257 60.2213 23.8333 59.6567C27.83 62.2197 32.571 63.712 37.6677 63.712C54.4317 63.712 63.899 49.555 63.327 36.8573C65.0943 35.5887 66.6233 33.9973 67.8333 32.186Z" fill="white"/>
</g>
<defs>
<clipPath id="clip0_139_226">
<rect width="88" height="88" fill="white"/>
</clipPath>
</defs>
</svg>
