<svg width="88" height="88" viewBox="0 0 88 88" fill="none" xmlns="http://www.w3.org/2000/svg">
<g clip-path="url(#clip0_139_228)">
<path d="M44 7.33333C64.218 7.33333 80.6667 23.782 80.6667 44C80.6667 64.218 64.218 80.6667 44 80.6667C23.782 80.6667 7.33333 64.218 7.33333 44C7.33333 23.782 23.782 7.33333 44 7.33333ZM44 0C19.701 0 0 19.701 0 44C0 68.299 19.701 88 44 88C68.299 88 88 68.299 88 44C88 19.701 68.299 0 44 0ZM36.6667 36.6667H29.3333V44H36.6667V66H47.6667V44H54.34L55 36.6667H47.6667V33.6123C47.6667 31.8597 48.0187 31.1667 49.7127 31.1667H55V22H46.1853C39.5927 22 36.6667 24.904 36.6667 30.4627V36.6667Z" fill="white"/>
</g>
<defs>
<clipPath id="clip0_139_228">
<rect width="88" height="88" fill="white"/>
</clipPath>
</defs>
</svg>
