<svg width="88" height="88" viewBox="0 0 88 88" fill="none" xmlns="http://www.w3.org/2000/svg">
<g clip-path="url(#clip0_139_230)">
<path fill-rule="evenodd" clip-rule="evenodd" d="M44 0C19.701 0 0 19.701 0 44C0 68.299 19.701 88 44 88C68.299 88 88 68.299 88 44C88 19.701 68.299 0 44 0ZM44 7.33333C64.218 7.33333 80.6667 23.782 80.6667 44C80.6667 64.218 64.218 80.6667 44 80.6667C23.782 80.6667 7.33333 64.218 7.33333 44C7.33333 23.782 23.782 7.33333 44 7.33333ZM53.8707 61.9263C54.461 62.348 55.22 62.4507 55.8983 62.194C56.5767 61.9373 57.079 61.358 57.2257 60.654C58.8207 53.1667 62.6853 34.2137 64.1337 27.4047C64.2437 26.8913 64.064 26.3597 63.6607 26.015C63.2573 25.674 62.6963 25.575 62.1977 25.7583C54.5123 28.6037 30.8367 37.4843 21.1603 41.0667C20.5443 41.294 20.1447 41.8843 20.1667 42.5333C20.1887 43.1823 20.625 43.7433 21.252 43.9303C25.5933 45.2283 31.2913 47.036 31.2913 47.036C31.2913 47.036 33.9497 55.077 35.3393 59.1653C35.5117 59.675 35.915 60.082 36.443 60.2177C36.9747 60.357 37.5357 60.214 37.9317 59.84C40.161 57.7353 43.6077 54.483 43.6077 54.483C43.6077 54.483 50.1563 59.2827 53.8707 61.9263ZM33.6857 46.0203L36.7657 56.1733L37.4477 49.742C37.4477 49.742 49.3387 39.017 56.1183 32.901C56.32 32.725 56.3457 32.4243 56.1807 32.2117C56.0157 32.0027 55.7187 31.9513 55.4913 32.0943C47.6337 37.1103 33.6857 46.0203 33.6857 46.0203Z" fill="white"/>
</g>
<defs>
<clipPath id="clip0_139_230">
<rect width="88" height="88" fill="white"/>
</clipPath>
</defs>
</svg>
