<svg width="88" height="88" viewBox="0 0 88 88" fill="none" xmlns="http://www.w3.org/2000/svg">
<g clip-path="url(#clip0_139_232)">
<path d="M44 7.33333C64.218 7.33333 80.6667 23.782 80.6667 44C80.6667 64.218 64.218 80.6667 44 80.6667C23.782 80.6667 7.33333 64.218 7.33333 44C7.33333 23.782 23.782 7.33333 44 7.33333ZM44 0C19.701 0 0 19.701 0 44C0 68.299 19.701 88 44 88C68.299 88 88 68.299 88 44C88 19.701 68.299 0 44 0ZM44 25.9673C49.874 25.9673 50.5707 25.9893 52.8917 26.0957C58.8573 26.367 61.6367 29.194 61.9117 35.112C62.0143 37.433 62.0363 38.126 62.0363 44C62.0363 49.874 62.0143 50.5707 61.9117 52.888C61.6367 58.8023 58.861 61.6367 52.8917 61.908C50.5707 62.0107 49.8777 62.0363 44 62.0363C38.126 62.0363 37.4293 62.0143 35.112 61.908C29.1353 61.633 26.367 58.795 26.092 52.888C25.9893 50.5707 25.9637 49.874 25.9637 44C25.9637 38.126 25.9893 37.4293 26.092 35.112C26.3633 29.1903 29.1427 26.3633 35.112 26.092C37.4293 25.9857 38.126 25.9673 44 25.9673ZM44 22C38.0233 22 37.279 22.0257 34.9287 22.1357C26.9353 22.5023 22.4987 26.9353 22.132 34.9287C22.0257 37.279 22 38.027 22 44C22 49.9767 22.0257 50.7247 22.132 53.0713C22.4987 61.061 26.9353 65.5013 34.9287 65.868C37.279 65.9743 38.0233 66 44 66C49.9767 66 50.7247 65.9743 53.075 65.868C61.0537 65.5013 65.5087 61.0683 65.868 53.0713C65.9743 50.7247 66 49.9767 66 44C66 38.027 65.9743 37.279 65.868 34.9287C65.5087 26.9463 61.0683 22.4987 53.075 22.1357C50.7247 22.0257 49.9767 22 44 22ZM44 32.703C37.763 32.703 32.703 37.7593 32.703 44C32.703 50.2407 37.763 55.297 44 55.297C50.237 55.297 55.297 50.2407 55.297 44C55.297 37.763 50.237 32.703 44 32.703ZM44 51.3333C39.9483 51.3333 36.6667 48.0517 36.6667 44C36.6667 39.952 39.9483 36.6667 44 36.6667C48.048 36.6667 51.337 39.9483 51.337 44C51.337 48.0517 48.048 51.3333 44 51.3333ZM55.7407 29.6193C54.285 29.6193 53.1007 30.8 53.1007 32.2593C53.1007 33.715 54.2813 34.8993 55.7407 34.8993C57.2 34.8993 58.3843 33.7187 58.3843 32.2593C58.3843 30.8 57.2037 29.6193 55.7407 29.6193Z" fill="white"/>
</g>
<defs>
<clipPath id="clip0_139_232">
<rect width="88" height="88" fill="white"/>
</clipPath>
</defs>
</svg>
