<svg width="88" height="88" viewBox="0 0 88 88" fill="none" xmlns="http://www.w3.org/2000/svg">
<g clip-path="url(#clip0_139_234)">
<path d="M44 7.33333C64.218 7.33333 80.6667 23.782 80.6667 44C80.6667 64.218 64.218 80.6667 44 80.6667C23.782 80.6667 7.33333 64.218 7.33333 44C7.33333 23.782 23.782 7.33333 44 7.33333ZM44 0C19.701 0 0 19.701 0 44C0 68.299 19.701 88 44 88C68.299 88 88 68.299 88 44C88 19.701 68.299 0 44 0ZM36.6667 29.3333C36.6667 31.3757 35.0277 33.0293 33 33.0293C30.9723 33.0293 29.3333 31.3793 29.3333 29.3333C29.3333 27.291 30.9723 25.6373 33 25.6373C35.0277 25.6373 36.6667 27.2947 36.6667 29.3333ZM36.6667 36.6667H29.3333V58.6667H36.6667V36.6667ZM47.6667 36.6667H40.3333V58.6667H47.6667V48.1763C47.6667 41.8623 55.0073 41.2793 55.0073 48.1763V58.6667H62.3333V46.3503C62.3333 34.309 50.864 34.749 47.6667 40.6743V36.6667Z" fill="white"/>
</g>
<defs>
<clipPath id="clip0_139_234">
<rect width="88" height="88" fill="white"/>
</clipPath>
</defs>
</svg>
