<svg width="53" height="53" viewBox="0 0 53 53" fill="none" xmlns="http://www.w3.org/2000/svg">
<g clip-path="url(#clip0_132_87)">
<path d="M26.5 4.41667C38.6767 4.41667 48.5833 14.3232 48.5833 26.5C48.5833 38.6767 38.6767 48.5833 26.5 48.5833C14.3232 48.5833 4.41667 38.6767 4.41667 26.5C4.41667 14.3232 14.3232 4.41667 26.5 4.41667ZM26.5 0C11.8654 0 0 11.8654 0 26.5C0 41.1346 11.8654 53 26.5 53C41.1346 53 53 41.1346 53 26.5C53 11.8654 41.1346 0 26.5 0ZM22.0833 22.0833H17.6667V26.5H22.0833V39.75H28.7083V26.5H32.7275L33.125 22.0833H28.7083V20.2438C28.7083 19.1882 28.9203 18.7708 29.9406 18.7708H33.125V13.25H27.8162C23.8456 13.25 22.0833 14.999 22.0833 18.3468V22.0833Z" fill="black"/>
</g>
<defs>
<clipPath id="clip0_132_87">
<rect width="53" height="53" fill="white"/>
</clipPath>
</defs>
</svg>
