<svg width="53" height="53" viewBox="0 0 53 53" fill="none" xmlns="http://www.w3.org/2000/svg">
<g clip-path="url(#clip0_132_83)">
<path d="M35.8412 15.6836C31.4202 15.3832 21.571 15.3855 17.1565 15.6836C12.3755 16.0104 11.8146 18.8989 11.777 26.5C11.8146 34.0878 12.3733 36.9896 17.1587 37.3164C21.5732 37.6145 31.4224 37.6168 35.8435 37.3164C40.6245 36.9896 41.1876 34.0989 41.2252 26.5C41.1854 18.9122 40.6267 16.0104 35.8412 15.6836ZM22.0833 31.4069V21.5931L32.6347 26.4912L22.0833 31.4069ZM26.5 4.41667C38.6767 4.41667 48.5833 14.3232 48.5833 26.5C48.5833 38.6767 38.6767 48.5833 26.5 48.5833C14.3232 48.5833 4.41667 38.6767 4.41667 26.5C4.41667 14.3232 14.3232 4.41667 26.5 4.41667ZM26.5 0C11.8654 0 0 11.8654 0 26.5C0 41.1346 11.8654 53 26.5 53C41.1346 53 53 41.1346 53 26.5C53 11.8654 41.1346 0 26.5 0Z" fill="black"/>
</g>
<defs>
<clipPath id="clip0_132_83">
<rect width="53" height="53" fill="white"/>
</clipPath>
</defs>
</svg>
