<svg width="53" height="53" viewBox="0 0 53 53" fill="none" xmlns="http://www.w3.org/2000/svg">
<g clip-path="url(#clip0_132_85)">
<path d="M26.5 4.41667C38.6767 4.41667 48.5833 14.3232 48.5833 26.5C48.5833 38.6767 38.6767 48.5833 26.5 48.5833C14.3232 48.5833 4.41667 38.6767 4.41667 26.5C4.41667 14.3232 14.3232 4.41667 26.5 4.41667ZM26.5 0C11.8654 0 0 11.8654 0 26.5C0 41.1346 11.8654 53 26.5 53C41.1346 53 53 41.1346 53 26.5C53 11.8654 41.1346 0 26.5 0ZM40.8542 19.3847C39.8803 19.8176 38.8313 20.1091 37.7316 20.2416C38.8556 19.568 39.7147 18.5036 40.1232 17.2338C39.072 17.8566 37.9082 18.3093 36.6694 18.5522C35.68 17.4944 34.2645 16.8341 32.7032 16.8341C29.192 16.8341 26.6126 20.1091 27.4054 23.5099C22.8894 23.2825 18.8812 21.1183 16.2003 17.8301C14.776 20.2725 15.4627 23.4702 17.8831 25.0889C16.9931 25.0602 16.1562 24.815 15.423 24.4087C15.3634 26.9262 17.1698 29.2825 19.7845 29.8081C19.0204 30.0157 18.1812 30.0642 17.3288 29.9008C18.02 32.0606 20.0318 33.6307 22.408 33.6749C20.1179 35.468 17.2405 36.2697 14.3542 35.9296C16.7612 37.4732 19.6166 38.372 22.6862 38.372C32.7827 38.372 38.4846 29.8456 38.1401 22.1982C39.2045 21.4341 40.1254 20.4757 40.8542 19.3847Z" fill="black"/>
</g>
<defs>
<clipPath id="clip0_132_85">
<rect width="53" height="53" fill="white"/>
</clipPath>
</defs>
</svg>
