<svg width="53" height="53" viewBox="0 0 53 53" fill="none" xmlns="http://www.w3.org/2000/svg">
<g clip-path="url(#clip0_132_91)">
<path d="M26.5 4.41667C38.6767 4.41667 48.5833 14.3232 48.5833 26.5C48.5833 38.6767 38.6767 48.5833 26.5 48.5833C14.3232 48.5833 4.41667 38.6767 4.41667 26.5C4.41667 14.3232 14.3232 4.41667 26.5 4.41667ZM26.5 0C11.8654 0 0 11.8654 0 26.5C0 41.1346 11.8654 53 26.5 53C41.1346 53 53 41.1346 53 26.5C53 11.8654 41.1346 0 26.5 0ZM26.5 15.6394C30.0377 15.6394 30.4573 15.6527 31.8552 15.7167C35.4482 15.8801 37.1221 17.5827 37.2877 21.147C37.3495 22.5449 37.3628 22.9622 37.3628 26.5C37.3628 30.0377 37.3495 30.4573 37.2877 31.853C37.1221 35.415 35.4504 37.1221 31.8552 37.2855C30.4573 37.3473 30.04 37.3628 26.5 37.3628C22.9622 37.3628 22.5427 37.3495 21.147 37.2855C17.5474 37.1199 15.8801 35.4106 15.7145 31.853C15.6527 30.4573 15.6372 30.0377 15.6372 26.5C15.6372 22.9622 15.6527 22.5427 15.7145 21.147C15.8779 17.5805 17.5518 15.8779 21.147 15.7145C22.5427 15.6505 22.9622 15.6394 26.5 15.6394ZM26.5 13.25C22.9004 13.25 22.4521 13.2655 21.0366 13.3317C16.2224 13.5525 13.5503 16.2224 13.3295 21.0366C13.2655 22.4521 13.25 22.9026 13.25 26.5C13.25 30.0996 13.2655 30.5501 13.3295 31.9634C13.5503 36.7754 16.2224 39.4497 21.0366 39.6705C22.4521 39.7345 22.9004 39.75 26.5 39.75C30.0996 39.75 30.5501 39.7345 31.9656 39.6705C36.771 39.4497 39.4541 36.7798 39.6705 31.9634C39.7345 30.5501 39.75 30.0996 39.75 26.5C39.75 22.9026 39.7345 22.4521 39.6705 21.0366C39.4541 16.229 36.7798 13.5503 31.9656 13.3317C30.5501 13.2655 30.0996 13.25 26.5 13.25ZM26.5 19.6961C22.7436 19.6961 19.6961 22.7414 19.6961 26.5C19.6961 30.2586 22.7436 33.3039 26.5 33.3039C30.2564 33.3039 33.3039 30.2586 33.3039 26.5C33.3039 22.7436 30.2564 19.6961 26.5 19.6961ZM26.5 30.9167C24.0598 30.9167 22.0833 28.9402 22.0833 26.5C22.0833 24.062 24.0598 22.0833 26.5 22.0833C28.938 22.0833 30.9189 24.0598 30.9189 26.5C30.9189 28.9402 28.938 30.9167 26.5 30.9167ZM33.5711 17.8389C32.6944 17.8389 31.9811 18.55 31.9811 19.4289C31.9811 20.3056 32.6922 21.0189 33.5711 21.0189C34.45 21.0189 35.1633 20.3078 35.1633 19.4289C35.1633 18.55 34.4522 17.8389 33.5711 17.8389Z" fill="black"/>
</g>
<defs>
<clipPath id="clip0_132_91">
<rect width="53" height="53" fill="white"/>
</clipPath>
</defs>
</svg>
