<svg width="53" height="53" viewBox="0 0 53 53" fill="none" xmlns="http://www.w3.org/2000/svg">
<g clip-path="url(#clip0_132_93)">
<path d="M26.5 4.41667C38.6767 4.41667 48.5833 14.3232 48.5833 26.5C48.5833 38.6767 38.6767 48.5833 26.5 48.5833C14.3232 48.5833 4.41667 38.6767 4.41667 26.5C4.41667 14.3232 14.3232 4.41667 26.5 4.41667ZM26.5 0C11.8654 0 0 11.8654 0 26.5C0 41.1346 11.8654 53 26.5 53C41.1346 53 53 41.1346 53 26.5C53 11.8654 41.1346 0 26.5 0ZM22.0833 17.6667C22.0833 18.8967 21.0962 19.8927 19.875 19.8927C18.6538 19.8927 17.6667 18.8989 17.6667 17.6667C17.6667 16.4366 18.6538 15.4407 19.875 15.4407C21.0962 15.4407 22.0833 16.4388 22.0833 17.6667ZM22.0833 22.0833H17.6667V35.3333H22.0833V22.0833ZM28.7083 22.0833H24.2917V35.3333H28.7083V29.0153C28.7083 25.2125 33.1294 24.8614 33.1294 29.0153V35.3333H37.5417V27.9155C37.5417 20.6634 30.634 20.9284 28.7083 24.497V22.0833Z" fill="black"/>
</g>
<defs>
<clipPath id="clip0_132_93">
<rect width="53" height="53" fill="white"/>
</clipPath>
</defs>
</svg>
