<svg width="53" height="53" viewBox="0 0 53 53" fill="none" xmlns="http://www.w3.org/2000/svg">
<g clip-path="url(#clip0_132_89)">
<path fill-rule="evenodd" clip-rule="evenodd" d="M26.5 0C11.8654 0 0 11.8654 0 26.5C0 41.1346 11.8654 53 26.5 53C41.1346 53 53 41.1346 53 26.5C53 11.8654 41.1346 0 26.5 0ZM26.5 4.41667C38.6767 4.41667 48.5833 14.3232 48.5833 26.5C48.5833 38.6767 38.6767 48.5833 26.5 48.5833C14.3232 48.5833 4.41667 38.6767 4.41667 26.5C4.41667 14.3232 14.3232 4.41667 26.5 4.41667ZM32.4448 37.2965C32.8004 37.5505 33.2575 37.6123 33.666 37.4577C34.0746 37.3032 34.3771 36.9542 34.4655 36.5302C35.4261 32.0208 37.7537 20.606 38.626 16.5051C38.6922 16.1959 38.584 15.8757 38.3411 15.6681C38.0982 15.4627 37.7603 15.4031 37.46 15.5135C32.8313 17.2272 18.5721 22.5758 12.7443 24.7333C12.3733 24.8702 12.1326 25.2258 12.1458 25.6167C12.1591 26.0075 12.4219 26.3454 12.7995 26.458C15.4142 27.2398 18.8459 28.3285 18.8459 28.3285C18.8459 28.3285 20.447 33.1714 21.2839 35.6337C21.3877 35.9406 21.6306 36.1857 21.9486 36.2675C22.2688 36.3514 22.6067 36.2652 22.8452 36.04C24.1879 34.7724 26.2637 32.8136 26.2637 32.8136C26.2637 32.8136 30.2078 35.7043 32.4448 37.2965ZM20.288 27.7168L22.143 33.8317L22.5537 29.9582C22.5537 29.9582 29.7153 23.4989 33.7985 19.8154C33.92 19.7094 33.9355 19.5283 33.8361 19.4002C33.7367 19.2743 33.5578 19.2434 33.4209 19.3295C28.6885 22.3505 20.288 27.7168 20.288 27.7168Z" fill="black"/>
</g>
<defs>
<clipPath id="clip0_132_89">
<rect width="53" height="53" fill="white"/>
</clipPath>
</defs>
</svg>
